<svg width="50" height="57" viewBox="0 0 50 57" fill="none" xmlns="http://www.w3.org/2000/svg">
<path d="M50 0L45.4449 51.029L24.9694 56.7055L4.5503 51.037L0 0H50Z" fill="#264DE4"/>
<path d="M41.5452 47.7796L45.4378 4.17303H25V52.3666L41.5452 47.7796Z" fill="#2965F1"/>
<path d="M10.4315 23.1019L10.9925 29.3613H25V23.1019H10.4315Z" fill="#EBEBEB"/>
<path d="M25 10.4326H24.9784H9.3042L9.87321 16.6921H25V10.4326Z" fill="#EBEBEB"/>
<path d="M25 45.8709V39.3584L24.9726 39.3657L18.0014 37.4834L17.5557 32.4911H14.1683H11.2722L12.1492 42.3194L24.9712 45.8789L25 45.8709Z" fill="#EBEBEB"/>
<path d="M32.6862 29.3613L31.9597 37.4794L24.9784 39.3637V45.8759L37.8107 42.3194L37.9048 41.2619L39.3757 24.7827L39.5284 23.1019L40.6585 10.4326H24.9784V16.6921H33.7986L33.2291 23.1019H24.9784V29.3613H32.6862Z" fill="white"/>
</svg>
