<svg width="50" height="50" viewBox="0 0 50 50" fill="none" xmlns="http://www.w3.org/2000/svg">
<path d="M50 27.9667V36.7917H39.7083C38.8452 36.7573 37.9994 36.5461 37.2229 36.1723L36.9667 36.0417L34.4667 34.5917C33.7348 34.2138 32.8744 34.1887 32.1254 34.5161L31.9667 34.5917L28.7667 36.4667C28.4838 36.6076 28.3051 36.8965 28.3051 37.2125C28.3051 37.4934 28.4463 37.7528 28.6763 37.906L28.7667 37.9583L35.5 41.9083C36.2577 42.3183 37.0908 42.5671 37.9471 42.6404L38.2333 42.6583H50V48.5417C49.9914 49.3042 49.4052 49.9268 48.6591 49.994L48.5333 50H1.46667C0.713145 49.996 0.0911611 49.4267 0.00868128 48.6908L0 48.5667V42.6833H11.7333C12.5941 42.6492 13.4376 42.4379 14.2114 42.064L14.4667 41.9333L36.9667 28.7167C37.7285 28.3103 38.5635 28.0621 39.4215 27.9857L39.7083 27.9667H50ZM50 13.2333V22.0583H38.2667C37.4064 22.0961 36.5638 22.3075 35.789 22.6787L35.5333 22.8083L13.0333 36.0333C12.2715 36.4397 11.4365 36.6879 10.5785 36.7643L10.2917 36.7833H0V27.9583H11.7333C12.5936 27.9205 13.4362 27.7091 14.211 27.338L14.4667 27.2083L36.9667 13.9833C37.7285 13.5769 38.5635 13.3287 39.4215 13.2524L39.7083 13.2333H50ZM48.5333 0C49.2916 0 49.9172 0.575687 49.9926 1.3167L50 1.44167V7.325H38.2667C37.4059 7.35917 36.5624 7.57041 35.7886 7.94435L35.5333 8.075L13.0333 21.2917C12.2729 21.7015 11.4373 21.9502 10.5787 22.0237L10.2917 22.0417H0V13.2167H10.2917C11.1542 13.2546 11.9993 13.466 12.7768 13.8371L13.0333 13.9667L15.5333 15.425C16.2652 15.8028 17.1256 15.828 17.8746 15.5006L18.0333 15.425L21.2333 13.5417C21.5116 13.3991 21.6867 13.1127 21.6867 12.8C21.6867 12.522 21.5484 12.2649 21.3222 12.111L14.5 8.1C13.7409 7.69349 12.9084 7.44522 12.0527 7.36901L11.7667 7.35H0V1.46667C0 0.69715 0.592626 0.0660483 1.34638 0.00486196L1.46667 0H48.5333Z" fill="#77E8B9"/>
</svg>
