<svg width="130" height="92" viewBox="0 0 130 92" fill="none" xmlns="http://www.w3.org/2000/svg">
<path d="M39.7933 73.7189H36.2739C36.1494 67.7783 35.8067 62.1934 35.2463 56.9601H35.215L29.8565 73.7189H27.177L21.8505 56.9601H21.8199C21.4248 61.9846 21.1759 67.5709 21.0725 73.7189H17.8645C18.0712 66.2426 18.5908 59.2336 19.4212 52.6912H23.7833L28.8602 68.1421H28.8915L33.9997 52.6912H38.1734C39.0874 60.3544 39.6274 67.3641 39.7933 73.7189ZM55.0566 58.2047C53.6237 65.9808 51.733 71.631 49.3867 75.158C47.5586 77.8729 45.5557 79.2317 43.3747 79.2317C42.7932 79.2317 42.0757 79.0562 41.2256 78.708V76.833C41.6411 76.8929 42.1288 76.9269 42.6892 76.9269C43.7079 76.9269 44.5268 76.6467 45.1511 76.0849C45.8978 75.4007 46.2712 74.6316 46.2712 73.7808C46.2712 73.1973 45.9801 72.0044 45.3993 70.1981L41.5371 58.204H44.9947L47.7667 67.1744C48.3897 69.2112 48.6495 70.6333 48.5454 71.4433C50.0614 67.3947 51.1203 62.9803 51.7235 58.2033H55.0566V58.2047Z" fill="#31738C"/>
<path d="M101.905 73.7187H91.9074V52.691H95.2705V71.1303H101.905V73.7187ZM89.2904 74.2268L85.4248 72.3191C85.7676 72.0376 86.0954 71.7329 86.3905 71.3799C88.0336 69.4498 88.8531 66.5955 88.8531 62.8148C88.8531 55.8582 86.1233 52.3782 80.6614 52.3782C77.9832 52.3782 75.894 53.2609 74.3999 55.0271C72.7581 56.9586 71.9386 59.8027 71.9386 63.5629C71.9386 67.2592 72.6649 69.9708 74.1183 71.6907C75.4479 73.2488 77.4521 74.0289 80.1323 74.0289C81.1321 74.0289 82.0495 73.9064 82.8853 73.6596L87.918 76.5894L89.2904 74.2268ZM76.7679 69.511C75.9165 68.1413 75.4907 65.9419 75.4907 62.9094C75.4907 57.6149 77.0991 54.9646 80.3194 54.9646C82.0026 54.9646 83.2363 55.5984 84.0252 56.8634C84.8753 58.2351 85.3031 60.4148 85.3031 63.4052C85.3031 68.7432 83.6933 71.4125 80.4751 71.4125C78.7912 71.4132 77.5575 70.7814 76.7679 69.511ZM70.473 67.8904C70.473 69.6736 69.8188 71.1364 68.5116 72.2824C67.2031 73.4236 65.4485 73.9955 63.2498 73.9955C61.1932 73.9955 59.1991 73.3386 57.269 72.0314L58.1729 70.2258C59.8337 71.0575 61.3373 71.471 62.6873 71.471C63.9543 71.471 64.9445 71.1902 65.6627 70.6332C66.3802 70.0741 66.808 69.29 66.808 68.2984C66.808 67.0491 65.9368 65.9813 64.3386 65.087C62.8648 64.2777 59.9173 62.5857 59.9173 62.5857C58.3198 61.4213 57.52 60.1713 57.52 58.112C57.52 56.4077 58.1164 55.0319 59.31 53.9852C60.5049 52.9345 62.0467 52.4108 63.9367 52.4108C65.8885 52.4108 67.6629 52.9338 69.2611 53.9689L68.4504 55.7752C67.0834 55.1944 65.7341 54.904 64.4032 54.904C63.3252 54.904 62.4928 55.1631 61.9141 55.6834C61.3305 56.2016 60.9708 56.8647 60.9708 57.6781C60.9708 58.9213 61.8603 60.0027 63.5021 60.9147C64.9956 61.7253 68.0165 63.4466 68.0165 63.4466C69.6549 64.6089 70.473 65.8474 70.473 67.8904Z" fill="#E59539"/>
<path d="M106.127 45.648C104.093 45.5963 102.519 45.801 101.197 46.3601C100.816 46.5124 100.209 46.5124 100.156 46.9946C100.362 47.1986 100.386 47.5278 100.565 47.8093C100.87 48.3174 101.401 49.0009 101.886 49.3572C102.418 49.7653 102.953 50.1693 103.513 50.5249C104.501 51.1363 105.621 51.492 106.584 52.1014C107.146 52.4557 107.703 52.9141 108.265 53.2956C108.541 53.499 108.718 53.8288 109.076 53.956V53.8785C108.897 53.65 108.846 53.3194 108.67 53.0651L107.907 52.3292C107.169 51.339 106.253 50.4746 105.265 49.7646C104.452 49.2042 102.673 48.4425 102.343 47.5053L102.291 47.4537C102.85 47.4013 103.513 47.1986 104.044 47.0429C104.909 46.8151 105.697 46.8667 106.584 46.6389C106.992 46.5369 107.397 46.409 107.806 46.2832V46.054C107.346 45.5963 107.018 44.9883 106.535 44.5558C105.241 43.4384 103.816 42.3455 102.343 41.4308C101.554 40.9214 100.539 40.5936 99.6992 40.1604C99.3966 40.0073 98.8865 39.9319 98.7083 39.6775C98.2527 39.1185 97.9963 38.3826 97.6658 37.7209C96.9313 36.3247 96.2178 34.7754 95.584 33.2989C95.1256 32.3087 94.8468 31.3199 94.2878 30.4038C91.6694 26.0852 88.8259 23.4696 84.4557 20.9022C83.5165 20.3677 82.3991 20.1399 81.2055 19.8597L79.2992 19.759C78.8925 19.5808 78.4852 19.0973 78.1302 18.8688C76.6802 17.9547 72.9472 15.9736 71.8808 18.5893C71.1939 20.2426 72.8969 21.868 73.4817 22.7065C73.9136 23.2887 74.4733 23.9511 74.7753 24.6121C74.9541 25.044 75.0045 25.5024 75.1833 25.9587C75.59 27.0768 75.9702 28.3207 76.5047 29.3639C76.7836 29.8958 77.0876 30.4548 77.444 30.9363C77.648 31.2179 78.003 31.3423 78.0805 31.8014C77.7262 32.3074 77.6983 33.0711 77.495 33.7063C76.5809 36.577 76.938 40.1332 78.2335 42.2428C78.6389 42.878 79.606 44.2763 80.8995 43.7404C82.0448 43.2833 81.7911 41.8354 82.1203 40.5657C82.1957 40.259 82.1461 40.0577 82.2984 39.8564V39.906C82.6528 40.6167 83.0105 41.3016 83.339 42.0143C84.1272 43.2582 85.4996 44.5544 86.6429 45.4161C87.2515 45.8759 87.7337 46.662 88.4961 46.9429V46.8667H88.4458C88.2914 46.6389 88.0656 46.5369 87.8629 46.3601C87.4046 45.9024 86.8972 45.3433 86.5415 44.836C85.4765 43.4126 84.5339 41.8368 83.6974 40.2107C83.288 39.4218 82.935 38.5594 82.6052 37.7719C82.4515 37.4679 82.4515 37.0095 82.1964 36.8565C81.8142 37.4148 81.2572 37.8984 80.9784 38.5826C80.4948 39.6768 80.4445 41.0227 80.265 42.4224L80.165 42.4713C79.3557 42.268 79.0741 41.4308 78.7667 40.7201C78.0057 38.9151 77.8779 36.0179 78.5382 33.9355C78.715 33.403 79.4801 31.7259 79.1748 31.2185C79.0218 30.7323 78.5131 30.4555 78.2342 30.0726C77.9064 29.5911 77.5473 28.9817 77.3188 28.4472C76.7095 27.0251 76.4027 25.4493 75.7464 24.0279C75.4397 23.3655 74.9072 22.68 74.476 22.07C73.9918 21.3844 73.4593 20.9016 73.0764 20.0889C72.9499 19.8093 72.7724 19.3523 72.9758 19.0483C73.0254 18.8443 73.1288 18.7681 73.3314 18.7171C73.6606 18.439 74.6012 18.7926 74.931 18.9456C75.8729 19.3265 76.6605 19.6822 77.4467 20.2154C77.8024 20.4704 78.1839 20.9532 78.6402 21.0804H79.1748C79.9861 21.2573 80.9009 21.1294 81.6646 21.3593C83.0105 21.7918 84.2299 22.4263 85.3235 23.1112C88.6512 25.2215 91.3953 28.22 93.2479 31.8014C93.5519 32.3849 93.6811 32.9194 93.9586 33.5281C94.4938 34.774 95.1555 36.0445 95.6867 37.2639C96.2206 38.4574 96.7293 39.6761 97.4917 40.6677C97.8718 41.2009 99.3993 41.4804 100.084 41.7599C100.591 41.9878 101.38 42.1904 101.837 42.47C102.701 43.0025 103.562 43.6139 104.375 44.1994C104.78 44.5041 106.051 45.1393 106.127 45.648ZM80.2112 23.5696C79.8605 23.5659 79.5108 23.6089 79.1714 23.6974V23.7484H79.2203C79.4251 24.1544 79.7807 24.436 80.0344 24.7903C80.2391 25.1977 80.4166 25.6017 80.6173 26.0084L80.6662 25.958C81.0246 25.7044 81.2028 25.2977 81.2028 24.6876C81.0484 24.5081 81.0246 24.3326 80.8961 24.1544C80.7465 23.9001 80.4166 23.7736 80.2112 23.5696Z" fill="#31738C"/>
<path d="M108.547 73.7153H109.073V71.1391H108.283L107.639 72.8971L106.94 71.1391H106.179V73.7153H106.676V71.7553H106.704L107.437 73.7153H107.816L108.547 71.7553V73.7153ZM104.306 73.7153H104.863V71.5757H105.592V71.1384H103.547V71.5757H104.305L104.306 73.7153Z" fill="#E59539"/>
</svg>
