<svg width="60" height="60" viewBox="0 0 60 60" fill="none" xmlns="http://www.w3.org/2000/svg">
<g clip-path="url(#clip0_1_769)">
<path d="M44.4913 43.6781C44.8734 40.4976 44.7585 40.0336 47.1257 40.5468L47.7281 40.6007C49.5492 40.6828 51.9304 40.3078 53.3531 39.6586C56.3648 38.2617 58.1507 35.9273 55.1812 36.5414C48.4077 37.9383 47.9156 35.6437 47.9156 35.6437C55.071 25.0265 58.064 11.55 55.4788 8.25231C48.4382 -0.747685 36.2484 3.50856 36.0445 3.62106L35.9788 3.63278C34.6429 3.35153 33.1663 3.18747 31.4554 3.16403C28.3898 3.11716 26.0648 3.96794 24.2976 5.30622C24.2976 5.30622 2.55462 -3.65159 3.56478 16.5726C3.7804 20.8758 9.72884 49.1507 16.8304 40.5961C19.4296 37.4695 21.9374 34.8281 21.9374 34.8281C23.1796 35.6554 24.6726 36.0773 26.2359 35.925L26.3577 35.8218C26.3217 36.227 26.3382 36.635 26.407 37.0359C24.5788 39.0797 25.1179 39.4383 21.4617 40.1906C17.7632 40.9523 19.9382 42.3093 21.3538 42.6656C23.0742 43.0968 27.0538 43.7062 29.7445 39.9422L29.6367 40.3711C30.3538 40.9453 30.3046 44.4961 30.4101 47.032C30.5156 49.5679 30.682 51.9375 31.1999 53.332C31.7179 54.7265 32.3249 58.3242 37.1296 57.3164C41.1445 56.4562 44.2148 55.2164 44.496 43.6992" fill="black"/>
<path d="M44.4913 43.6781C44.8734 40.4976 44.7585 40.0336 47.1257 40.5468L47.7281 40.6008C49.5492 40.6828 51.9304 40.3078 53.3531 39.6586C56.3648 38.2617 58.1507 35.9273 55.1812 36.5414C48.4077 37.9383 47.9156 35.6437 47.9156 35.6437C55.071 25.0265 58.064 11.55 55.4788 8.25231C48.4382 -0.747685 36.2484 3.50856 36.0445 3.62106L35.9788 3.63278C34.6429 3.35153 33.1663 3.18747 31.4554 3.16403C28.3898 3.11716 26.0648 3.96794 24.2976 5.30622C24.2976 5.30622 2.55462 -3.65159 3.56478 16.5726C3.7804 20.8758 9.72884 49.1507 16.8304 40.5961C19.4296 37.4695 21.9374 34.8281 21.9374 34.8281C23.1796 35.6554 24.6726 36.0773 26.2359 35.925L26.3577 35.8218C26.3217 36.227 26.3382 36.635 26.407 37.0359C24.5788 39.0797 25.1179 39.4383 21.4617 40.1906C17.7632 40.9523 19.9382 42.3093 21.3538 42.6656C23.0742 43.0968 27.0538 43.7062 29.7445 39.9422L29.6367 40.3711C30.3538 40.9453 30.3046 44.4961 30.4101 47.032C30.5156 49.5679 30.682 51.9375 31.1999 53.332C31.7179 54.7265 32.3249 58.3242 37.1296 57.3164C41.1445 56.4562 44.2148 55.2164 44.496 43.6992" stroke="black" stroke-width="5.3725"/>
<path d="M55.1602 36.5625C48.3867 37.9594 47.8946 35.6648 47.8946 35.6648C55.05 25.0476 58.043 11.5711 55.4602 8.27342C48.4196 -0.726579 36.2297 3.53201 36.0258 3.64217L35.9602 3.65389C34.4713 3.35515 32.9576 3.19742 31.4391 3.1828C28.3735 3.13592 26.0485 3.9867 24.2813 5.32498C24.2813 5.32498 2.53595 -3.63283 3.54845 16.5914C3.76408 20.8945 9.71251 49.1695 16.8141 40.6148C19.4297 37.4695 21.9375 34.8281 21.9375 34.8281C23.1797 35.6555 24.6727 36.0773 26.236 35.925L26.3578 35.8219C26.322 36.227 26.3386 36.635 26.407 37.0359C24.5789 39.0797 25.118 39.4383 21.4617 40.1906C17.7633 40.9523 19.9383 42.3094 21.3539 42.6656C23.0742 43.0969 27.0539 43.7062 29.7445 39.9422L29.6367 40.3711C30.3539 40.9453 30.8555 44.1047 30.7711 46.9687C30.6867 49.8328 30.6305 51.7969 31.193 53.3344C31.7555 54.8719 32.318 58.3265 37.1227 57.3187C41.1375 56.4586 43.2164 54.225 43.5094 50.5078C43.7156 47.864 44.1797 48.2531 44.2125 45.8906L44.5875 44.7703C45.0164 41.1844 44.6578 40.0289 47.1305 40.568L47.7328 40.6219C49.5539 40.7039 51.9375 40.3289 53.3344 39.6797C56.3461 38.2828 58.1297 35.9484 55.1602 36.5625Z" fill="#336791"/>
<path d="M30.0328 38.5945C29.8453 45.2648 30.0797 51.982 30.7312 53.5945C31.3828 55.207 32.782 58.3992 37.5891 57.3726C41.6039 56.5125 43.0664 54.8461 43.6992 51.1687L45.1828 39.4101M24.2719 5.15622C24.2719 5.15622 2.51249 -3.74065 3.52499 16.4836C3.74062 20.7867 9.68906 49.0617 16.7906 40.507C19.3828 37.3828 21.7266 34.9383 21.7266 34.9383M36.0234 3.53201C35.2734 3.76638 48.1266 -1.16721 55.4344 8.16794C58.0125 11.4656 55.0242 24.9422 47.8687 35.5593" stroke="white" stroke-width="1.79" stroke-linecap="round" stroke-linejoin="round"/>
<path d="M47.8711 35.5547C47.8711 35.5547 48.3398 37.8515 55.1367 36.45C58.1063 35.8359 56.318 38.1703 53.3086 39.5672C50.8383 40.7156 45.2977 41.0086 45.2063 39.4265C44.9719 35.3367 48.1219 36.5789 47.8945 35.5547C47.6883 34.6312 46.2773 33.7265 45.3492 31.4672C44.5359 29.4984 34.193 14.3812 48.218 16.6242C48.7336 16.5187 44.5617 3.26482 31.4367 3.07264C18.3117 2.88045 18.7266 19.2094 18.7266 19.2094" stroke="white" stroke-width="1.79" stroke-linecap="round" stroke-linejoin="bevel"/>
<path d="M26.36 36.9562C24.5319 39 25.071 39.3586 21.4147 40.1109C17.7163 40.8726 19.8913 42.2297 21.3069 42.5859C23.0272 43.0172 27.0069 43.6266 29.6975 39.8601C30.5179 38.7117 29.6929 36.8836 28.5679 36.4195C28.0241 36.1945 27.2975 35.9133 26.3647 36.9586L26.36 36.9562Z" stroke="white" stroke-width="1.79" stroke-linejoin="round"/>
<path d="M26.2406 36.9211C26.0531 35.7187 26.6343 34.2914 27.2554 32.618C28.1882 30.1101 30.3398 27.6023 28.6195 19.6406C27.3374 13.7109 18.7288 18.4055 18.7288 19.2094C18.7288 20.0133 19.1179 23.2875 18.5882 27.0961C17.8921 32.0695 21.7523 36.2742 26.196 35.8453" stroke="white" stroke-width="1.79" stroke-linecap="round" stroke-linejoin="round"/>
<path d="M24.1921 19.0898C24.1523 19.364 24.696 20.0976 25.4015 20.1961C26.107 20.2945 26.7093 19.7226 26.7492 19.4461C26.789 19.1695 26.2452 18.8695 25.5398 18.7711C24.8343 18.6726 24.2273 18.8179 24.1921 19.0898Z" fill="white" stroke="white" stroke-width="0.5975"/>
<path d="M45.6702 18.5297C45.7077 18.8039 45.1663 19.5375 44.4609 19.6359C43.7554 19.7343 43.1484 19.1625 43.1132 18.8859C43.078 18.6093 43.6171 18.3093 44.3226 18.2109C45.028 18.1125 45.6351 18.2578 45.6702 18.5297Z" fill="white" stroke="white" stroke-width="0.2975"/>
<path d="M48.1922 16.6289C48.3094 18.7851 47.7281 20.25 47.6531 22.5445C47.5453 25.8773 49.2422 29.6929 46.6852 33.5133" stroke="white" stroke-width="1.79" stroke-linecap="round" stroke-linejoin="round"/>
</g>
<defs>
<clipPath id="clip0_1_769">
<rect width="60" height="60" fill="white"/>
</clipPath>
</defs>
</svg>
