<svg width="103" height="36" viewBox="0 0 103 36" fill="none" xmlns="http://www.w3.org/2000/svg">
<path fill-rule="evenodd" clip-rule="evenodd" d="M88.929 31.2516V35.9226H97.3677C99.0967 35.9226 102.064 34.6581 102.168 31.1226V29.3161C102.168 26.2968 99.6903 24.5161 97.3677 24.5161H93.1613V22.3484H101.497V17.6516H93.4967C91.4322 17.6516 88.6709 19.3548 88.6709 22.529V24.1548C88.6709 27.329 91.4064 28.9548 93.4967 28.9548C99.3032 28.9806 92.1032 28.9548 97.4709 28.9548V31.2258M43.7161 30.1161C43.7161 30.1161 48.2322 29.729 48.2322 23.8968C48.2322 18.0645 42.7613 17.5226 42.7613 17.5226H32.9032V35.9226H37.858V31.4839L42.1419 35.9226H49.4709L43.7161 30.1161ZM41.8064 26.3484H37.858V22.1419H41.8322C41.8322 22.1419 42.9419 22.5548 42.9419 24.2323C42.9419 25.9097 41.8064 26.3484 41.8064 26.3484ZM60.4645 17.6516H55.4322C51.8451 17.6516 50.6322 20.9032 50.6322 22.4516V35.9226H55.6645V32.6968H60.3871V35.9226H65.2645V22.4516C65.2645 18.529 61.7032 17.6516 60.4645 17.6516ZM60.3871 27.4839H55.6387V23.0194C55.6387 23.0194 55.6387 22.0129 57.2129 22.0129H58.9419C60.3355 22.0129 60.3613 23.0194 60.3613 23.0194V27.4839H60.3871Z" fill="#CC0000"/>
<path d="M72.8 17.6516H67.5613V35.9226H72.8V17.6516Z" fill="#CC0000"/>
<path fill-rule="evenodd" clip-rule="evenodd" d="M80.1548 31.2V17.6516H74.9419V31.2V35.9226H80.1548H87.2V31.2H80.1548Z" fill="#CC0000"/>
<path fill-rule="evenodd" clip-rule="evenodd" d="M1.8064 35.9225H22.1935C22.1935 35.9225 18.2967 18.1419 31.1999 10.9419C34.0128 9.57413 42.9677 4.46445 57.6258 15.3032C58.0903 14.9161 58.529 14.6064 58.529 14.6064C58.529 14.6064 45.1096 1.21284 30.1677 2.70961C22.658 3.38058 13.4193 10.2193 7.99994 19.2515C2.58059 28.2838 1.8064 35.9225 1.8064 35.9225Z" fill="#CC0000"/>
<path fill-rule="evenodd" clip-rule="evenodd" d="M1.8064 35.9225H22.1935C22.1935 35.9225 18.2967 18.1419 31.1999 10.9419C34.0128 9.57413 42.9677 4.46445 57.6258 15.3032C58.0903 14.9161 58.529 14.6064 58.529 14.6064C58.529 14.6064 45.1096 1.21284 30.1677 2.70961C22.658 3.38058 13.4193 10.2193 7.99994 19.2515C2.58059 28.2838 1.8064 35.9225 1.8064 35.9225Z" fill="#CC0000"/>
<path fill-rule="evenodd" clip-rule="evenodd" d="M1.8064 35.9226H22.1935C22.1935 35.9226 18.2967 18.1419 31.1999 10.9419C34.0128 9.5742 42.9677 4.46452 57.6258 15.3032C58.0903 14.9161 58.529 14.6065 58.529 14.6065C58.529 14.6065 45.1096 1.21291 30.1677 2.70968C22.6322 3.38065 13.3935 10.2194 7.97414 19.2516C2.55478 28.2839 1.8064 35.9226 1.8064 35.9226ZM44.2838 4.15484L44.387 2.42581C44.1548 2.29678 43.5096 1.9871 41.8838 1.52258L41.7806 3.22581C42.6322 3.50968 43.458 3.81936 44.2838 4.15484Z" fill="#CC0000"/>
<path fill-rule="evenodd" clip-rule="evenodd" d="M41.8323 9.62581L41.729 11.2516C42.5806 11.2774 43.4323 11.3806 44.2839 11.5613L44.3871 9.96129C43.5097 9.78064 42.6581 9.67742 41.8323 9.62581ZM32.2839 1.57419H32.5419L32.0258 0C31.2258 0 30.4 0.0516129 29.5484 0.154839L30.0387 1.67742C30.7871 1.6 31.5355 1.57419 32.2839 1.57419ZM33.5226 11.071L34.1161 12.8516C34.8645 12.4903 35.6129 12.1806 36.3613 11.9484L35.7936 10.2452C34.9161 10.5032 34.1677 10.7871 33.5226 11.071ZM21.8065 4.28387L20.6452 2.50323C20 2.83871 19.329 3.2 18.6323 3.6129L19.8194 5.41935C20.4903 5.00645 21.1355 4.61935 21.8065 4.28387ZM27.0968 15.8968L28.3355 17.7548C28.7742 17.1097 29.2903 16.5161 29.8581 15.9226L28.6968 14.1677C28.1032 14.7097 27.5613 15.3032 27.0968 15.8968ZM23.3548 24.2064L25.4452 25.8581C25.5484 24.8516 25.729 23.8452 25.9871 22.8387L24.129 21.3677C23.7936 22.3226 23.5613 23.2774 23.3548 24.2064ZM12.0516 11.9484L10.2194 10.3484C9.54839 10.9935 8.90323 11.6387 8.30968 12.2839L10.2968 13.9871C10.8387 13.2903 11.4323 12.5935 12.0516 11.9484ZM4.25806 23.4839L1.29032 22.4C0.8 23.5097 0.258065 24.8 0 25.4968L2.96774 26.5806C3.30323 25.7032 3.84516 24.4387 4.25806 23.4839ZM22.9677 30.7613C23.0194 32.129 23.1484 33.2387 23.2774 34.0129L26.3742 35.1226C26.1419 34.1161 25.9097 32.9806 25.7548 31.7677L22.9677 30.7613Z" fill="#CC0000"/>
</svg>
