<svg width="50" height="50" viewBox="0 0 50 50" fill="none" xmlns="http://www.w3.org/2000/svg">
<path d="M0 0H50V50H0V0ZM45.9047 38.075C45.5406 35.7938 44.0547 33.8766 39.6484 32.0891C38.1156 31.3703 36.4109 30.8703 35.9047 29.7141C35.7156 29.0266 35.6859 28.6516 35.8094 28.2453C36.1219 26.9 37.7156 26.4953 38.9656 26.8703C39.7781 27.1203 40.5281 27.7453 40.9984 28.7453C43.1531 27.3375 43.1531 27.3375 44.6547 26.4016C44.0922 25.5266 43.8125 25.15 43.4344 24.7766C42.1219 23.3078 40.3734 22.5578 37.5297 22.6219L36.0609 22.8078C34.6531 23.1516 33.3109 23.9016 32.4984 24.9016C30.1234 27.5906 30.8094 32.2781 33.6844 34.2156C36.5281 36.3406 40.6859 36.8078 41.2172 38.8094C41.7172 41.2469 39.4047 42.0281 37.1219 41.7469C35.4328 41.3719 34.4969 40.5266 33.4656 38.9641L29.6531 41.1531C30.0906 42.1531 30.5906 42.5891 31.3406 43.4641C34.9656 47.1219 44.0281 46.9344 45.6547 41.3719C45.7156 41.1844 46.1547 39.9031 45.8094 37.9344L45.9047 38.075ZM27.1891 22.9813H22.5063C22.5063 27.0188 22.4875 31.0312 22.4875 35.075C22.4875 37.6422 22.6187 39.9984 22.2 40.7234C21.5125 42.1594 19.7422 41.975 18.9375 41.7234C18.1125 41.3156 17.6937 40.7531 17.2078 39.9422C17.0766 39.7234 16.9781 39.5344 16.9438 39.5344L13.1422 41.8781C13.7781 43.1906 14.7047 44.3203 15.9 45.0391C17.6812 46.1016 20.075 46.4453 22.5812 45.8828C24.2125 45.4125 25.6188 44.4437 26.3547 42.9437C27.4172 41.0062 27.1922 38.6313 27.1812 35.9734C27.2062 31.6938 27.1812 27.4125 27.1812 23.1L27.1891 22.9813Z" fill="#F7DF1E"/>
</svg>
